<svg xmlns="http://www.w3.org/2000/svg" xmlns:xlink="http://www.w3.org/1999/xlink" width="500" zoomAndPan="magnify" viewBox="0 0 375 374.999991" height="500" preserveAspectRatio="xMidYMid meet" version="1.0"><defs><clipPath id="ca91c0fe07"><path d="M 31 212 L 290 212 L 290 346.855469 L 31 346.855469 Z M 31 212 " clip-rule="nonzero"/></clipPath><clipPath id="9bebeea94b"><path d="M 85 28.105469 L 344 28.105469 L 344 163 L 85 163 Z M 85 28.105469 " clip-rule="nonzero"/></clipPath><clipPath id="297bb1bd4d"><path d="M 212 85 L 346.855469 85 L 346.855469 344 L 212 344 Z M 212 85 " clip-rule="nonzero"/></clipPath><clipPath id="bc1609d1eb"><path d="M 28.105469 31 L 163 31 L 163 290 L 28.105469 290 Z M 28.105469 31 " clip-rule="nonzero"/></clipPath></defs><g clip-path="url(#ca91c0fe07)"><path fill="#000000" d="M 258.136719 293.289062 L 287.886719 264.273438 C 287.886719 264.273438 292.101562 260.402344 288.132812 257.082031 C 288.132812 257.082031 285.285156 254.027344 280.902344 258.535156 L 258.984375 278.84375 C 258.984375 278.84375 257.054688 279.90625 256.234375 278.769531 C 256.234375 278.769531 254.953125 277.929688 256.355469 275.828125 C 256.355469 275.828125 281.207031 247.652344 287.582031 239.875 C 287.582031 239.875 289.890625 236.566406 286.753906 233.695312 C 286.753906 233.695312 283.371094 230.191406 278.71875 235.355469 L 253.929688 265.492188 C 253.929688 265.492188 252.488281 267.152344 250.617188 265.371094 C 250.617188 265.371094 249.214844 264.332031 251 262.304688 L 280.550781 224.789062 C 280.550781 224.789062 283.945312 221.332031 280.574219 218.328125 C 280.574219 218.328125 276.996094 215.140625 272.792969 219.871094 L 241.875 257.589844 C 241.875 257.589844 240.542969 259.507812 237.746094 258.359375 C 237.746094 258.359375 236.207031 256.441406 238.503906 253.511719 L 260.3125 221.34375 C 260.3125 221.34375 263.613281 216.738281 259.375 213.75 C 259.375 213.75 255.332031 210.621094 250.875 216.546875 L 213.445312 266.089844 C 213.445312 266.089844 208.339844 274.804688 201.878906 267.980469 C 201.878906 267.980469 200.355469 264.890625 200.355469 256.734375 C 200.355469 256.734375 201.878906 240.933594 190.671875 236.183594 C 190.671875 236.183594 182.683594 232.777344 185.394531 246.039062 C 185.394531 246.039062 187.605469 258.101562 187.4375 268.8125 C 187.4375 268.8125 184.554688 294.808594 186.082031 312.480469 C 186.082031 312.480469 185.738281 316.730469 183.015625 320.808594 L 173.746094 329.101562 L 173.734375 329.101562 C 169.460938 328.683594 165.261719 328.085938 161.109375 327.292969 L 161.097656 327.292969 C 117.683594 319.132812 81.15625 291.171875 61.3125 253.179688 L 61.3125 253.167969 C 54.390625 246.414062 48.1875 239.441406 43.484375 233.847656 L 41.1875 231.125 L 41.1875 231.0625 C 38.539062 227.851562 36.644531 225.410156 35.742188 224.226562 L 31.539062 220.4375 C 44.519531 281.921875 93.050781 330.453125 154.535156 343.433594 L 154.546875 343.433594 C 161.570312 344.910156 168.738281 345.925781 176.050781 346.449219 L 176.0625 346.449219 C 179.847656 346.726562 183.660156 346.863281 187.503906 346.863281 C 193.453125 346.863281 199.324219 346.535156 205.101562 345.898438 L 217.59375 332.023438 C 217.59375 332.023438 221.699219 328.960938 227.582031 324.003906 C 236.316406 316.675781 249.003906 305.160156 258.136719 293.289062 Z M 258.136719 293.289062 " fill-opacity="1" fill-rule="nonzero"/></g><g clip-path="url(#9bebeea94b)"><path fill="#000000" d="M 116.871094 81.6875 L 87.113281 110.699219 C 87.113281 110.699219 82.902344 114.570312 86.871094 117.894531 C 86.871094 117.894531 89.714844 120.945312 94.097656 116.4375 L 116.019531 96.128906 C 116.019531 96.128906 117.945312 95.066406 118.777344 96.203125 C 118.777344 96.203125 120.0625 97.046875 118.65625 99.148438 C 118.65625 99.148438 93.792969 127.320312 87.429688 135.097656 C 87.429688 135.097656 85.109375 138.40625 88.25 141.277344 C 88.25 141.277344 91.632812 144.78125 96.285156 139.617188 L 121.074219 109.480469 C 121.074219 109.480469 122.515625 107.820312 124.382812 109.601562 C 124.382812 109.601562 125.789062 110.640625 124.003906 112.667969 L 94.453125 150.179688 C 94.453125 150.179688 91.058594 153.636719 94.441406 156.640625 C 94.441406 156.640625 98.007812 159.828125 102.207031 155.101562 L 133.128906 117.378906 C 133.128906 117.378906 134.457031 115.464844 137.265625 116.613281 C 137.265625 116.613281 138.792969 118.527344 136.5 121.460938 L 114.6875 153.625 C 114.6875 153.625 111.390625 158.230469 115.628906 161.222656 C 115.628906 161.222656 119.667969 164.347656 124.140625 158.425781 L 161.570312 108.882812 C 161.570312 108.882812 166.660156 100.164062 173.121094 106.988281 C 173.121094 106.988281 174.648438 110.078125 174.648438 118.238281 C 174.648438 118.238281 173.121094 134.039062 184.34375 138.789062 C 184.34375 138.789062 192.328125 142.195312 189.605469 128.933594 C 189.605469 128.933594 187.394531 116.871094 187.566406 106.160156 C 187.566406 106.160156 190.460938 80.164062 188.921875 62.492188 C 188.921875 62.492188 189.261719 58.246094 191.984375 54.164062 L 201.265625 45.859375 C 205.539062 46.277344 209.753906 46.875 213.90625 47.667969 C 257.328125 55.839844 293.855469 83.816406 313.699219 121.820312 L 313.699219 121.832031 C 320.613281 128.574219 326.816406 135.53125 331.515625 141.125 L 333.8125 143.847656 L 333.8125 143.910156 C 336.460938 147.121094 338.355469 149.5625 339.257812 150.75 L 343.460938 154.535156 C 330.480469 93.035156 281.949219 44.507812 220.476562 31.550781 C 213.453125 30.0625 206.261719 29.050781 198.9375 28.523438 C 195.160156 28.242188 191.351562 28.105469 187.507812 28.105469 C 181.558594 28.105469 175.6875 28.4375 169.898438 29.074219 L 157.40625 42.945312 C 157.40625 42.945312 153.300781 46.011719 147.414062 50.96875 C 138.683594 58.300781 126.007812 69.816406 116.871094 81.6875 Z M 116.871094 81.6875 " fill-opacity="1" fill-rule="nonzero"/></g><g clip-path="url(#297bb1bd4d)"><path fill="#000000" d="M 345.925781 169.890625 L 332.042969 157.386719 C 332.042969 157.386719 328.988281 153.308594 324.042969 147.433594 C 324.042969 147.421875 324.042969 147.421875 324.042969 147.410156 C 316.691406 138.679688 305.175781 126.003906 293.292969 116.859375 L 264.289062 87.097656 C 264.289062 87.097656 260.40625 82.886719 257.097656 86.867188 C 257.097656 86.867188 254.03125 89.710938 258.539062 94.082031 L 278.847656 116 C 278.847656 116 279.910156 117.941406 278.773438 118.761719 C 278.773438 118.761719 277.941406 120.042969 275.828125 118.640625 C 275.828125 118.640625 247.667969 93.789062 239.890625 87.414062 C 239.890625 87.414062 236.578125 85.105469 233.707031 88.242188 C 233.707031 88.242188 230.207031 91.613281 235.359375 96.265625 L 265.507812 121.058594 C 265.507812 121.058594 267.167969 122.511719 265.375 124.378906 C 265.375 124.378906 264.347656 125.78125 262.308594 124 L 224.8125 94.449219 C 224.8125 94.449219 221.34375 91.039062 218.351562 94.421875 C 218.351562 94.421875 215.164062 97.988281 219.878906 102.203125 L 257.613281 133.109375 C 257.613281 133.109375 259.515625 134.441406 258.367188 137.25 C 258.367188 137.25 256.464844 138.777344 253.535156 136.480469 L 221.355469 114.671875 C 221.355469 114.671875 216.753906 111.375 213.773438 115.621094 C 213.773438 115.621094 210.632812 119.664062 216.570312 124.121094 L 266.113281 161.550781 C 266.113281 161.550781 274.828125 166.65625 268.003906 173.105469 C 268.003906 173.105469 264.917969 174.644531 256.757812 174.644531 C 256.757812 174.644531 240.957031 173.105469 236.191406 184.328125 C 236.191406 184.328125 232.796875 192.316406 246.046875 189.59375 C 246.046875 189.59375 258.113281 187.382812 268.820312 187.550781 C 268.820312 187.550781 294.820312 190.445312 312.5 188.921875 C 312.5 188.921875 316.75 189.261719 320.832031 191.972656 L 329.121094 201.253906 L 329.121094 201.265625 C 328.707031 205.539062 328.109375 209.738281 327.3125 213.894531 L 327.3125 213.90625 C 319.15625 257.304688 291.203125 293.804688 253.226562 313.660156 L 253.214844 313.660156 C 246.449219 320.585938 239.476562 326.789062 233.871094 331.492188 C 229.277344 335.351562 225.75 338.109375 224.238281 339.269531 L 220.476562 343.445312 C 281.960938 330.464844 330.476562 281.945312 343.449219 220.460938 L 343.449219 220.449219 C 344.9375 213.441406 345.949219 206.246094 346.476562 198.933594 L 346.476562 198.921875 C 346.757812 195.148438 346.890625 191.339844 346.890625 187.492188 C 346.890625 181.539062 346.5625 175.667969 345.925781 169.890625 Z M 345.925781 169.890625 " fill-opacity="1" fill-rule="nonzero"/></g><g clip-path="url(#bc1609d1eb)"><path fill="#000000" d="M 50.953125 227.542969 C 50.953125 227.554688 50.953125 227.554688 50.953125 227.566406 C 58.304688 236.296875 69.820312 248.972656 81.703125 258.117188 L 110.71875 287.878906 C 110.71875 287.878906 114.589844 292.089844 117.898438 288.109375 C 117.898438 288.109375 120.964844 285.265625 116.460938 280.894531 L 96.152344 258.972656 C 96.152344 258.972656 95.089844 257.03125 96.222656 256.214844 C 96.222656 256.214844 97.066406 254.929688 99.167969 256.339844 C 99.167969 256.339844 127.339844 281.1875 135.109375 287.5625 C 135.109375 287.5625 138.429688 289.871094 141.300781 286.734375 C 141.300781 286.734375 144.804688 283.363281 139.640625 278.710938 L 109.488281 253.921875 C 109.488281 253.921875 107.839844 252.464844 109.621094 250.597656 C 109.621094 250.597656 110.648438 249.195312 112.6875 250.980469 L 150.203125 280.53125 C 150.203125 280.53125 153.660156 283.9375 156.652344 280.554688 C 156.652344 280.554688 159.839844 276.988281 155.125 272.777344 L 117.398438 241.867188 C 117.398438 241.867188 115.480469 240.535156 116.628906 237.726562 C 116.628906 237.726562 118.535156 236.203125 121.480469 238.496094 L 153.644531 260.308594 C 153.644531 260.308594 158.25 263.605469 161.230469 259.351562 C 161.230469 259.351562 164.367188 255.3125 158.433594 250.851562 L 108.902344 213.421875 C 108.902344 213.421875 100.167969 208.320312 106.996094 201.871094 C 106.996094 201.871094 110.085938 200.332031 118.242188 200.332031 C 118.242188 200.332031 134.046875 201.871094 138.808594 190.648438 C 138.808594 190.648438 142.203125 182.660156 128.953125 185.382812 C 128.953125 185.382812 116.890625 187.59375 106.179688 187.421875 C 106.179688 187.421875 80.183594 184.53125 62.5 186.054688 C 62.5 186.054688 58.261719 185.714844 54.183594 183 L 45.878906 173.710938 C 46.296875 169.433594 46.894531 165.222656 47.675781 161.070312 C 55.839844 117.652344 83.816406 81.125 121.832031 61.28125 C 128.585938 54.367188 135.542969 48.179688 141.125 43.488281 C 145.71875 39.628906 149.246094 36.871094 150.761719 35.710938 L 154.519531 31.535156 C 93.046875 44.515625 44.53125 93.035156 31.550781 154.519531 L 31.550781 154.53125 C 30.058594 161.539062 29.046875 168.734375 28.519531 176.046875 L 28.519531 176.058594 C 28.238281 179.832031 28.105469 183.640625 28.105469 187.488281 C 28.105469 193.433594 28.433594 199.308594 29.070312 205.085938 L 42.957031 217.589844 C 42.957031 217.589844 46.011719 221.667969 50.953125 227.542969 Z M 50.953125 227.542969 " fill-opacity="1" fill-rule="nonzero"/></g></svg>